# xmcd
#
# Track frame offsets: 
#        150
#        9987
#        26408
#        42147
#        49436
#        59015
#        67972
#        78754
#        88492
#        101614
#        116685
#        131614
#        146767
#
# Disc length: 2216 seconds
#
# Revision: 0
# Processed by: cddbd v1.5.2PL0 Copyright (c) Steve Scherf et al.
# Submitted via: ExactAudioCopyFreeDBPlugin 1.0
#
DISCID=b208a60d
DTITLE=Those Poor Bastards - Behold The Abyss
DYEAR=2012
DGENRE=Country
TTITLE0=Thee Beginning
TTITLE1=He Of Cloven Hoof
TTITLE2=A Robe Of Scarlet Thread
TTITLE3=Old Red
TTITLE4=My Beautiful Knife
TTITLE5=Phantom Pool
TTITLE6=Guilt
TTITLE7=Find Me A Gal
TTITLE8=Everything Is Temporary
TTITLE9=Your Faith Shall Be Tested
TTITLE10=Sacrificial Lamb
TTITLE11=God's Dark Heaven
TTITLE12=Thee End
EXTD=
EXTT0=
EXTT1=
EXTT2=
EXTT3=
EXTT4=
EXTT5=
EXTT6=
EXTT7=
EXTT8=
EXTT9=
EXTT10=
EXTT11=
EXTT12=
PLAYORDER=
